<svg width="51" height="21" viewBox="0 0 51 21" fill="none" xmlns="http://www.w3.org/2000/svg">
<path d="M41.4407 6.84684C40.8699 6.81728 40.2879 6.87299 39.7206 6.9628C39.3666 7.01851 39.2418 7.25612 39.4267 7.63356C40.1109 9.03192 40.2459 10.5144 40.0848 12.0481C39.7161 15.5622 37.2086 17.8211 33.6845 17.7689C31.7046 17.7393 30.0934 16.8309 28.8612 15.3814C27.1582 13.3771 25.5947 11.2511 23.9279 9.12174C28.4516 5.63833 32.8131 2.10036 38.8481 1.81728C38.3103 1.192 36.9147 0.60764 36.0206 0.533742C33.908 0.357526 31.9326 0.852069 30.0741 1.80932C27.4736 3.14857 25.26 5.05057 22.9874 6.85935C22.6027 7.16517 22.3531 7.23793 21.956 6.84116C20.1781 5.06421 18.0722 3.9603 15.5012 4.06262C13.3647 4.14789 11.4972 4.91983 10.1231 6.63197C9.22226 7.75407 8.73325 9.05125 8.73665 10.5019C8.73665 10.6906 8.93748 11.0374 9.05434 11.0408C9.62959 11.0601 10.2173 11.0374 10.7789 10.9214C10.9605 10.8839 11.1171 10.5315 11.2078 10.2939C11.4087 9.77203 11.4597 9.16835 11.7479 8.70905C13.0198 6.67744 15.7883 6.11469 18.062 7.13447C20.0396 8.02124 21.2991 9.7402 22.5948 11.3864C22.664 11.4739 22.571 11.8207 22.453 11.9071C20.4492 13.3612 18.3377 14.6345 16.0265 15.5406C15.3798 15.7941 14.7115 16.0317 14.0307 16.1511C12.9676 16.3364 11.8863 16.4148 10.6507 16.5569C11.1624 16.8639 11.5823 17.1777 12.0486 17.3857C14.4199 18.4419 16.6857 17.8769 18.9334 16.9173C20.7352 16.1477 22.3077 15.0017 23.9257 13.9307C24.1844 13.7602 24.2978 13.7477 24.5077 14.0228C25.2747 15.0256 26.0349 16.0397 26.887 16.9673C28.9452 19.2093 31.3789 20.6804 34.5649 20.4837C36.4563 20.3666 38.1197 19.6913 39.547 18.4533C40.803 17.3641 41.629 15.976 42.1532 14.4139C42.9486 12.0435 43.0575 9.67426 41.983 7.3482C41.8832 7.13333 41.6324 6.85707 41.4407 6.84684Z" fill="#FFD54F"/>
<path d="M19.866 10.2757C19.7356 10.1166 19.5756 9.97901 19.4156 9.8494C19.1546 9.63794 18.9277 9.63681 18.6078 9.83462C16.7561 10.984 14.7807 11.8446 12.6408 12.3085C10.6008 12.7507 8.53583 12.869 6.45609 12.7632C5.75717 12.7632 5.05825 12.7689 4.36046 12.7621C3.60481 12.7553 3.44483 12.8371 3.3325 13.4965L1.12001 13.4056C0.876073 13.3953 0.670709 13.5852 0.660497 13.8296L0.652555 14.0036C0.642343 14.248 0.831823 14.4538 1.07576 14.464L3.29279 14.555C3.35747 15.2018 3.5912 15.4247 4.26629 15.4099C6.15088 15.3712 8.03433 15.3201 9.91778 15.2394C13.4022 15.0893 16.6131 14.0445 19.5665 12.1948C20.6852 11.4945 20.717 11.3103 19.866 10.2757Z" fill="#FFD54F"/>
<path d="M50.2294 3.44308L47.9102 3.34758C47.8274 2.87009 47.613 2.58587 47.2794 2.52789C47.2419 2.52107 47.2045 2.52107 47.1659 2.5188C46.2253 2.46764 45.2836 2.41648 44.343 2.36532C41.8389 2.32553 39.3859 2.54381 36.9692 3.30552C35.3115 3.82848 33.6459 4.32416 32.1573 5.20979C30.3782 6.26823 28.6763 7.45854 26.9585 8.61816C25.9113 9.3253 25.9079 9.47423 26.7237 10.4645C26.8541 10.6236 27.0164 10.7566 27.1662 10.8999C27.384 11.1079 27.5565 11.1182 27.8469 10.9283C29.643 9.75618 31.4209 8.54767 33.2862 7.49606C35.5044 6.24549 37.9064 5.39624 40.457 5.22344C42.6524 5.0745 44.8627 5.14954 47.0672 5.14499C47.6935 5.14385 47.841 5.04722 47.9148 4.40602L50.1851 4.49924C50.4291 4.50947 50.6344 4.31962 50.6446 4.07519L50.6514 3.90124C50.6628 3.65909 50.4733 3.45331 50.2294 3.44308Z" fill="#FFD54F"/>
</svg>
