<svg width="64" height="26" viewBox="0 0 64 26" fill="none" xmlns="http://www.w3.org/2000/svg">
<path d="M52.2095 8.12471C51.479 8.08687 50.734 8.15817 50.0078 8.27312C49.5547 8.34441 49.395 8.64851 49.6317 9.13157C50.5074 10.9212 50.6803 12.8186 50.474 14.7814C50.002 19.2788 46.7924 22.1699 42.2815 22.1029C39.7473 22.0651 37.685 20.9026 36.1078 19.0474C33.9279 16.4823 31.9266 13.7614 29.7931 11.0362C35.5835 6.57803 41.1662 2.05006 48.891 1.68776C48.2026 0.887507 46.4163 0.139634 45.2719 0.045059C42.5677 -0.180467 40.0392 0.45246 37.6603 1.67758C34.3316 3.39157 31.4981 5.8258 28.5892 8.14071C28.0968 8.53211 27.7773 8.62523 27.269 8.11743C24.9933 5.84326 22.2978 4.43045 19.0068 4.5614C16.2721 4.67052 13.8816 5.65847 12.1229 7.84971C10.9698 9.2858 10.3438 10.946 10.3482 12.8025C10.3482 13.0441 10.6052 13.4879 10.7548 13.4922C11.4911 13.517 12.2434 13.4879 12.9623 13.3394C13.1947 13.2914 13.3951 12.8404 13.5113 12.5363C13.7684 11.8684 13.8337 11.0958 14.2026 10.508C15.8306 7.90791 19.3743 7.18768 22.2847 8.49282C24.8161 9.62773 26.4281 11.8277 28.0867 13.9345C28.1753 14.0466 28.0562 14.4904 27.9051 14.6009C25.3404 16.4619 22.6376 18.0915 19.6793 19.2511C18.8514 19.5756 17.996 19.8797 17.1246 20.0325C15.7638 20.2696 14.3798 20.37 12.7982 20.5519C13.4532 20.9448 13.9906 21.3463 14.5875 21.6126C17.6228 22.9643 20.523 22.2412 23.4001 21.0131C25.7063 20.0281 27.7192 18.5615 29.7902 17.1908C30.1214 16.9726 30.2666 16.9566 30.5353 17.3087C31.517 18.592 32.4901 19.8899 33.5808 21.0772C36.2153 23.9464 39.3305 25.8292 43.4085 25.5775C45.8295 25.4276 47.9586 24.5634 49.7856 22.9789C51.3933 21.585 52.4506 19.8084 53.1216 17.8092C54.1397 14.7755 54.2791 11.7433 52.9037 8.76636C52.7759 8.49137 52.455 8.1378 52.2095 8.12471Z" fill="white"/>
<path d="M24.5939 12.5131C24.4269 12.3094 24.2221 12.1333 24.0173 11.9674C23.6833 11.6968 23.3929 11.6953 22.9833 11.9485C20.6131 13.4195 18.0847 14.521 15.3456 15.1146C12.7344 15.6806 10.0912 15.8319 7.42907 15.6966C6.53445 15.6966 5.63982 15.7039 4.74665 15.6952C3.77941 15.6864 3.57464 15.7912 3.43086 16.6351L0.598856 16.5187C0.286609 16.5056 0.0237414 16.7486 0.0106706 17.0614L0.000504446 17.284C-0.0125663 17.5968 0.229969 17.8602 0.542216 17.8733L3.38003 17.9897C3.46281 18.8176 3.76199 19.1028 4.62611 19.0839C7.0384 19.0344 9.44923 18.9689 11.8601 18.8656C16.3201 18.6736 20.4301 17.3364 24.2105 14.9691C25.6425 14.0728 25.6831 13.8371 24.5939 12.5131Z" fill="white"/>
<path d="M63.4591 3.76838L60.4906 3.64616C60.3846 3.03505 60.1101 2.6713 59.6831 2.5971C59.6352 2.58837 59.5873 2.58837 59.5379 2.58546C58.3339 2.51998 57.1285 2.45451 55.9245 2.38903C52.7193 2.33811 49.5794 2.61747 46.486 3.59232C44.3642 4.26162 42.2322 4.89601 40.3267 6.02946C38.0495 7.38407 35.8711 8.90746 33.6723 10.3916C32.3318 11.2966 32.3274 11.4872 33.3716 12.7545C33.5387 12.9582 33.7463 13.1284 33.938 13.3118C34.2169 13.578 34.4376 13.5911 34.8094 13.3481C37.1084 11.848 39.3842 10.3014 41.7718 8.95547C44.6111 7.35497 47.6856 6.26808 50.9504 6.04692C53.7606 5.85631 56.5897 5.95234 59.4115 5.94652C60.2132 5.94507 60.402 5.82139 60.4964 5.00077L63.4025 5.12008C63.7147 5.13317 63.9776 4.89019 63.9907 4.57736L63.9994 4.35474C64.0139 4.04483 63.7714 3.78147 63.4591 3.76838Z" fill="white"/>
</svg>
